HIERARCHY
ROOT pelvis
{
	OFFSET 0.000000 0.937925 -0.000000
	CHANNELS 6 Xposition Yposition Zposition Xrotation Yrotation Zrotation
	JOINT spine
	{
		OFFSET 0.000000 0.000000 0.000000
		CHANNELS 6 Xposition Yposition Zposition Xrotation Yrotation Zrotation
		JOINT spine.001
		{
			OFFSET 0.000000 0.304644 0.015966
			CHANNELS 3 Xrotation Yrotation Zrotation
			JOINT neck
			{
				OFFSET 0.000000 0.302788 -0.037178
				CHANNELS 6 Xposition Yposition Zposition Xrotation Yrotation Zrotation
				JOINT face
				{
					OFFSET 0.000000 0.239085 -0.004173
					CHANNELS 6 Xposition Yposition Zposition Xrotation Yrotation Zrotation
					End Site
					{
						OFFSET 0.000000 -0.009393 0.033637
					}
				}
			}
			JOINT shoulder.L
			{
				OFFSET 0.000000 0.302788 -0.037178
				CHANNELS 6 Xposition Yposition Zposition Yrotation Xrotation Zrotation
				JOINT upper_arm.L
				{
					OFFSET 0.190409 0.000000 0.000000
					CHANNELS 6 Xposition Yposition Zposition Xrotation Yrotation Zrotation
					JOINT forearm.L
					{
						OFFSET 0.324777 0.001157 -0.000140
						CHANNELS 6 Xposition Yposition Zposition Xrotation Yrotation Zrotation
						End Site
						{
							OFFSET 0.267200 -0.001591 0.004536
						}
					}
				}
			}
			JOINT shoulder.R
			{
				OFFSET 0.000000 0.302788 -0.037178
				CHANNELS 6 Xposition Yposition Zposition Yrotation Xrotation Zrotation
				JOINT upper_arm.R
				{
					OFFSET -0.190409 0.000000 0.000000
					CHANNELS 6 Xposition Yposition Zposition Xrotation Yrotation Zrotation
					JOINT forearm.R
					{
						OFFSET -0.316622 0.001157 -0.000140
						CHANNELS 6 Xposition Yposition Zposition Xrotation Yrotation Zrotation
						End Site
						{
							OFFSET -0.281049 -0.001593 0.004778
						}
					}
				}
			}
		}
	}
	JOINT pelvis.L
	{
		OFFSET 0.000000 0.000000 0.000000
		CHANNELS 6 Xposition Yposition Zposition Yrotation Xrotation Zrotation
		End Site
		{
			OFFSET 0.115127 0.000000 0.000000
		}
	}
	JOINT pelvis.R
	{
		OFFSET 0.000000 0.000000 0.000000
		CHANNELS 6 Xposition Yposition Zposition Yrotation Xrotation Zrotation
		End Site
		{
			OFFSET -0.115127 0.000000 0.000000
		}
	}
	JOINT thigh.L
	{
		OFFSET 0.115127 0.000000 0.000000
		CHANNELS 6 Xposition Yposition Zposition Xrotation Yrotation Zrotation
		JOINT shin.L
		{
			OFFSET 0.022519 -0.429682 0.000000
			CHANNELS 6 Xposition Yposition Zposition Xrotation Yrotation Zrotation
			JOINT foot.L
			{
				OFFSET 0.022219 -0.423959 0.000000
				CHANNELS 6 Xposition Yposition Zposition Xrotation Yrotation Zrotation
				End Site
				{
					OFFSET 0.018503 -0.079221 0.188658
				}
			}
		}
	}
	JOINT thigh.R
	{
		OFFSET -0.115127 0.000000 0.000000
		CHANNELS 6 Xposition Yposition Zposition Xrotation Yrotation Zrotation
		JOINT shin.R
		{
			OFFSET -0.022063 -0.420980 0.000000
			CHANNELS 6 Xposition Yposition Zposition Xrotation Yrotation Zrotation
			JOINT foot.R
			{
				OFFSET -0.022750 -0.434104 0.000000
				CHANNELS 6 Xposition Yposition Zposition Xrotation Yrotation Zrotation
				End Site
				{
					OFFSET -0.019477 -0.083392 0.198591
				}
			}
		}
	}
}
MOTION
Frames: 4
Frame Time: 0.041667
0.036857 -0.022325 0.031417 -0.000000 -1.866488 0.000000 0.000000 -0.000000 0.000000 -10.721354 0.013957 -0.094967 10.010376 3.119993 -0.383478 -0.000000 0.302788 -0.037178 20.780413 8.199044 -3.670931 -0.000000 0.239085 -0.004173 1.868835 -0.000001 -0.000000 -0.000000 0.302789 -0.037178 -0.067386 -0.000322 -0.548583 0.190409 0.000000 -0.000000 -2.455837 -2.822667 -81.475025 0.324777 0.001157 -0.000140 -1.316619 -15.854922 -9.935090 -0.000000 0.302789 -0.037178 -0.074041 -0.000392 -0.602641 -0.190409 0.000000 0.000000 -1.646336 1.848259 82.271514 -0.316622 0.001157 -0.000140 -0.456054 9.372572 6.181758 0.000000 0.000000 0.000000 -0.000020 -0.000000 -0.850968 0.000000 0.000000 0.000000 0.000000 -0.000000 -0.850968 0.115114 -0.001710 0.000000 3.406884 -0.002667 -6.089661 0.022519 -0.429682 0.000000 6.981376 0.690563 5.284233 0.022219 -0.423959 0.000000 -9.943196 0.937668 1.506729 -0.115114 0.001710 0.000000 3.805676 -0.162840 1.101619 -0.022063 -0.420980 0.000000 5.012632 -0.424145 -3.667073 -0.022750 -0.434104 -0.000000 -9.041825 -3.845280 -2.894071 
0.038875 -0.021374 0.033618 -0.000000 -1.523000 0.000000 0.000000 -0.000000 -0.000000 -10.906766 -0.012008 0.080794 10.008336 2.797930 -0.343825 -0.000000 0.302789 -0.037178 20.867355 7.655143 -3.914839 -0.000000 0.239086 -0.004173 2.316487 -0.000003 0.000003 0.000000 0.302789 -0.037178 -0.118884 -0.001005 -0.968058 0.190409 0.000000 -0.000000 -2.955414 -3.455155 -80.689758 0.324777 0.001157 -0.000140 -1.246538 -14.201860 -10.733118 0.000000 0.302789 -0.037178 -0.125522 -0.001120 -1.022152 -0.190409 0.000000 0.000000 -0.877609 0.965848 82.030989 -0.316622 0.001157 -0.000140 -0.600825 10.830254 6.908418 0.000000 0.000000 -0.000000 -0.000024 -0.000000 -1.014823 0.000000 0.000000 -0.000000 0.000000 -0.000000 -1.014853 0.115108 -0.002039 0.000000 3.913684 -0.012153 -6.355652 0.022519 -0.429682 0.000000 6.215188 0.620650 5.394194 0.022219 -0.423959 0.000000 -10.354120 1.459393 1.830572 -0.115108 0.002039 0.000000 4.147659 -0.187036 0.838281 -0.022063 -0.420980 0.000000 4.896606 -0.406860 -3.493838 -0.022750 -0.434104 0.000000 -9.335750 -3.818075 -2.923450 
0.040231 -0.020636 0.035532 -0.000000 -1.221579 0.000000 0.000000 0.000000 0.000000 -11.073051 -0.029886 0.199100 10.006672 2.497022 -0.306795 -0.000000 0.302789 -0.037178 20.957575 7.374544 -4.114433 0.000000 0.239085 -0.004173 2.639328 -0.000001 0.000001 -0.000000 0.302789 -0.037178 -0.157902 -0.001773 -1.286145 0.190409 -0.000000 -0.000000 -3.198890 -3.782858 -80.111446 0.324777 0.001157 -0.000140 -1.211251 -13.397110 -11.191651 -0.000000 0.302788 -0.037178 -0.164573 -0.001925 -1.340203 -0.190409 -0.000000 -0.000000 -0.322869 0.324009 81.922225 -0.316622 0.001157 -0.000140 -0.710822 11.815444 7.415004 0.000000 0.000000 0.000000 -0.000059 -0.000000 -1.023724 0.000000 0.000000 0.000000 -0.000000 -0.000000 -1.023753 0.115108 -0.002057 0.000000 4.320612 -0.018824 -6.498998 0.022519 -0.429682 0.000000 5.600939 0.560925 5.428975 0.022219 -0.423959 0.000000 -10.622119 1.700166 1.991474 -0.115108 0.002057 0.000000 4.421184 -0.204945 0.694478 -0.022063 -0.420980 0.000000 4.819256 -0.396732 -3.406566 -0.022750 -0.434104 0.000000 -9.486994 -3.912900 -2.994790 
0.040865 -0.020152 0.037049 -0.000000 -0.962663 0.000000 0.000000 0.000000 0.000000 -11.203956 -0.038298 0.253172 10.005296 2.228622 -0.273774 -0.000000 0.302788 -0.037178 21.023928 7.276241 -4.246482 0.000000 0.239084 -0.004173 2.822780 0.000003 0.000004 -0.000000 0.302788 -0.037178 -0.180981 -0.002325 -1.473344 0.190409 -0.000000 -0.000000 -3.163697 -3.763293 -79.775551 0.324777 0.001157 -0.000140 -1.231206 -13.490960 -11.289280 0.000000 0.302788 -0.037178 -0.187583 -0.002499 -1.527436 -0.190409 0.000000 0.000000 -0.052058 0.009686 81.942749 -0.316622 0.001157 -0.000140 -0.759058 12.280658 7.579156 0.000000 0.000000 0.000000 0.000011 0.000000 -0.880191 0.000000 0.000000 0.000000 -0.000000 -0.000000 -0.880190 0.115113 -0.001768 0.000000 4.620645 -0.021151 -6.524183 0.022519 -0.429682 0.000000 5.144910 0.514690 5.417938 0.022219 -0.423959 0.000000 -10.721444 1.660180 1.982694 -0.115113 0.001768 -0.000000 4.636603 -0.215970 0.669202 -0.022063 -0.420980 0.000000 4.738293 -0.390131 -3.408413 -0.022750 -0.434104 0.000000 -9.451120 -4.151118 -3.112465 
